<svg xmlns="http://www.w3.org/2000/svg" viewBox="0 0 189.65 116.62"><defs><style>.cls-1{stroke:#000;stroke-miterlimit:10;}</style></defs><g id="Calque_2" data-name="Calque 2"><g id="Calque_1-2" data-name="Calque 1"><path class="cls-1" d="M85.54.5H54.75S8.11,3.22.86,53.93c0,0-5.89,31.7,29.89,54.34,0,0,10.87,5.89,22.19,7.25s44.83,0,44.83,0V58.31H42.07S48,75.22,77.84,78.39V96.05l-21.73-.46S27.58,93.78,21.24,63c0,0-4.89-29.89,27.89-40.75l92.79-.68s19-1.59,18.34,18.34-20.38,18.41-20.38,18.41H111.8l50.49,57.81h26.27L153,74.92s31.47-4.46,29-38.42S145.54.5,145.54.5Z"/></g></g></svg>